<svg width="822" height="628" xmlns="http://www.w3.org/2000/svg" xmlns:xlink="http://www.w3.org/1999/xlink" overflow="hidden"><defs><clipPath id="clip0"><rect x="34" y="50" width="822" height="628"/></clipPath></defs><g clip-path="url(#clip0)" transform="translate(-34 -50)"><path d="M35.5001 73.0003C35.5001 61.6783 44.6782 52.5001 56.0001 52.5001L437 52.5001C448.322 52.5001 457.501 61.6783 457.501 73.0003L457.5 73.0003C457.5 84.3223 448.322 93.5005 437 93.5005L56.0001 93.5001C44.6782 93.5001 35.5001 84.3218 35.5001 72.9998Z" stroke="#38A1B7" stroke-width="1.33333" stroke-miterlimit="8" fill="#CEE2E7" fill-rule="evenodd"/><text fill="#7BA3B3" font-family="Calibri,Calibri_MSFontService,sans-serif" font-weight="400" font-size="24" transform="translate(50.7971 80)">Hoe meten we prestatie van studenten?</text><path d="M391.5 127C391.5 115.678 400.678 106.5 412 106.5L835 106.5C846.322 106.5 855.5 115.678 855.5 127L855.5 127C855.5 138.322 846.322 147.5 835 147.5L412 147.5C400.678 147.5 391.5 138.322 391.5 127Z" stroke="#38A1B7" stroke-width="1.33333" stroke-miterlimit="8" fill="#85B7C4" fill-rule="evenodd"/><text fill="#FFFFFF" font-family="Calibri,Calibri_MSFontService,sans-serif" font-weight="400" font-size="24" transform="translate(407.339 134)">Slaagcijfers, maar motivatie is ook belangrijk</text><path d="M35.5001 180C35.5001 168.678 44.6783 159.5 56.0002 159.5L368 159.5C379.322 159.5 388.5 168.678 388.5 180L388.5 180C388.5 191.322 379.322 200.5 368 200.5L56.0002 200.5C44.6783 200.5 35.5001 191.322 35.5001 180Z" stroke="#38A1B7" stroke-width="1.33333" stroke-miterlimit="8" fill="#CEE2E7" fill-rule="evenodd"/><text fill="#7BA3B3" font-family="Calibri,Calibri_MSFontService,sans-serif" font-weight="400" font-size="24" transform="translate(50.7971 187)">OK, en hoe meten we motivatie?</text><path d="M670.5 234C670.5 222.678 679.678 213.5 691 213.5L834 213.5C845.322 213.5 854.5 222.678 854.5 234L854.5 234C854.5 245.322 845.322 254.5 834 254.5L691 254.5C679.678 254.5 670.5 245.322 670.5 234Z" stroke="#38A1B7" stroke-width="1.33333" stroke-miterlimit="8" fill="#85B7C4" fill-rule="evenodd"/><text fill="#FFFFFF" font-family="Calibri,Calibri_MSFontService,sans-serif" font-weight="400" font-size="24" transform="translate(687.142 241)">Een rondvraag?</text><path d="M35.5001 287C35.5001 275.678 44.6782 266.5 56.0001 266.5L273 266.5C284.322 266.5 293.5 275.678 293.5 287L293.5 287C293.5 298.322 284.322 307.5 273 307.5L56.0001 307.5C44.6782 307.5 35.5001 298.322 35.5001 287Z" stroke="#38A1B7" stroke-width="1.33333" stroke-miterlimit="8" fill="#CEE2E7" fill-rule="evenodd"/><text fill="#7BA3B3" font-family="Calibri,Calibri_MSFontService,sans-serif" font-weight="400" font-size="24" transform="translate(50.7971 294)">Maar, dat is eenmalig…</text><path d="M751.5 341C751.5 329.678 760.678 320.5 772 320.5L834 320.5C845.322 320.5 854.5 329.678 854.5 341L854.5 341C854.5 352.322 845.322 361.5 834 361.5L772 361.5C760.678 361.5 751.5 352.322 751.5 341Z" stroke="#38A1B7" stroke-width="1.33333" stroke-miterlimit="8" fill="#85B7C4" fill-rule="evenodd"/><text fill="#FFFFFF" font-family="Calibri,Calibri_MSFontService,sans-serif" font-weight="400" font-size="24" transform="translate(768.808 348)">Hmm<tspan x="53.3333" y="0">…</tspan></text><path d="M35.5001 394C35.5001 382.678 44.6782 373.5 56 373.5L386 373.5C397.322 373.5 406.5 382.678 406.5 394L406.5 394C406.5 405.322 397.322 414.5 386 414.5L56 414.5C44.6782 414.5 35.5001 405.322 35.5001 394Z" stroke="#38A1B7" stroke-width="1.33333" stroke-miterlimit="8" fill="#CEE2E7" fill-rule="evenodd"/><text fill="#7BA3B3" font-family="Calibri,Calibri_MSFontService,sans-serif" font-weight="400" font-size="24" transform="translate(50.7971 401)">En is er al een rondvraag gebeurd?</text><path d="M725.5 447.5C725.5 436.454 734.454 427.5 745.5 427.5L834.5 427.5C845.546 427.5 854.5 436.454 854.5 447.5L854.5 447.5C854.5 458.546 845.546 467.5 834.5 467.5L745.5 467.5C734.454 467.5 725.5 458.546 725.5 447.5Z" stroke="#38A1B7" stroke-width="1.33333" stroke-miterlimit="8" fill="#85B7C4" fill-rule="evenodd"/><text fill="#FFFFFF" font-family="Calibri,Calibri_MSFontService,sans-serif" font-weight="400" font-size="24" transform="translate(741.106 455)">Kameleon</text><path d="M35.5001 501C35.5001 489.678 44.6782 480.5 56.0001 480.5L185 480.5C196.322 480.5 205.5 489.678 205.5 501L205.5 501C205.5 512.322 196.322 521.5 185 521.5L56.0001 521.5C44.6782 521.5 35.5001 512.322 35.5001 501Z" stroke="#38A1B7" stroke-width="1.33333" stroke-miterlimit="8" fill="#CEE2E7" fill-rule="evenodd"/><text fill="#7BA3B3" font-family="Calibri,Calibri_MSFontService,sans-serif" font-weight="400" font-size="24" transform="translate(50.7971 508)">Betrouwbaar?</text><path d="M428.5 575C428.5 552.633 446.632 534.5 469 534.5L814 534.5C836.368 534.5 854.5 552.633 854.5 575L854.5 575C854.5 597.368 836.368 615.5 814 615.5L469 615.5C446.632 615.5 428.5 597.368 428.5 575Z" stroke="#38A1B7" stroke-width="1.33333" stroke-miterlimit="8" fill="#85B7C4" fill-rule="evenodd"/><text fill="#FFFFFF" font-family="Calibri,Calibri_MSFontService,sans-serif" font-weight="400" font-size="24" transform="translate(462.454 568)">Ja, maar er zijn meerdere vragen rond <tspan x="11.08" y="29">motivatie, kan je dat samensmelten?</tspan></text><path d="M35.5001 649C35.5001 637.678 44.6782 628.5 56 628.5L392 628.5C403.322 628.5 412.5 637.678 412.5 649L412.5 649C412.5 660.322 403.322 669.5 392 669.5L56 669.5C44.6782 669.5 35.5001 660.322 35.5001 649Z" stroke="#38A1B7" stroke-width="1.33333" stroke-miterlimit="8" fill="#CEE2E7" fill-rule="evenodd"/><text fill="#7BA3B3" font-family="Calibri,Calibri_MSFontService,sans-serif" font-weight="400" font-size="24" transform="translate(50.7971 656)">J<tspan x="7.66666" y="0">a,</tspan><tspan x="30.6667" y="0">maar</tspan><tspan x="86.6667" y="0">het</tspan><tspan x="124.707" y="0">blijft</tspan><tspan x="174.873" y="0">eenmalige data…</tspan></text></g></svg>